<?xml version="1.0" encoding="utf-8"?>
<!-- Generator: Adobe Illustrator 27.6.1, SVG Export Plug-In . SVG Version: 6.00 Build 0)  -->
<svg version="1.1" xmlns="http://www.w3.org/2000/svg" xmlns:xlink="http://www.w3.org/1999/xlink" x="0px" y="0px"
	 viewBox="0 0 636.53 131.84" style="enable-background:new 0 0 636.53 131.84;" xml:space="preserve">
<style type="text/css">
	.st0{fill:#1EBF44;}
</style>
<g id="レイヤー_1">
	<g>
		<path class="st0" d="M103.88,49.42H66.31c-0.33,0-0.62-0.21-0.72-0.52L53.98,13.16c-0.42-1.29-2.25-1.29-2.67,0L39.7,48.9
			c-0.1,0.31-0.39,0.52-0.72,0.52H1.41c-1.36,0-1.92,1.74-0.82,2.54l30.4,22.09c0.26,0.19,0.37,0.53,0.27,0.84l-11.61,35.74
			c-0.42,1.29,1.06,2.37,2.16,1.57l30.4-22.09c0.26-0.19,0.62-0.19,0.89,0l30.4,22.09c1.1,0.8,2.58-0.28,2.16-1.57L74.03,74.89
			c-0.1-0.31,0.01-0.65,0.27-0.84l30.4-22.09C105.8,51.16,105.24,49.42,103.88,49.42z"/>
		<g>
			<path d="M214.66,31.83c-6,0-17.16,2.1-23.32,7.89L191,40.05l-0.34-0.32c-6.43-5.92-15.51-9.18-25.58-9.18
				c-12.93,0-26.37,4.83-36.91,13.27v60.08h20.81V63.67c0-7.2,5.86-13.06,13.06-13.06c7.2,0,13.06,5.86,13.06,13.06v40.22h20.81
				V63.67c0-7.2,5.86-13.06,13.06-13.06c7.2,0,13.06,5.86,13.06,13.06l0,40.22h20.81V55.13C242.83,44.13,230.78,31.83,214.66,31.83z
				"/>
			<path d="M379.19,31.83c-10.37,0-16.56,3.89-16.56,3.89V0h-20.81v94.64c10.54,8.44,23.98,13.27,36.91,13.27l0.47,0.01
				c20.62,0,37.4-17.07,37.4-38.04S399.82,31.83,379.19,31.83z M378.27,88.85c-10.3,0-18.67-8.51-18.67-18.98
				s8.38-18.98,18.67-18.98c10.3,0,18.67,8.51,18.67,18.98S388.57,88.85,378.27,88.85z"/>
			<path d="M624.2,51.82V34.76h-18.63V16.61h-20.81v63.71c0,9.85,1.86,16.24,6.03,20.73c4.16,4.43,10.54,6.87,17.98,6.87
				c5.56,0,11.83-2.39,15.43-4.67V86.2c-1.62,0.8-5.65,2.52-9.96,2.52c-7.69,0-8.67-6.7-8.67-12.54V51.82H624.2z"/>
			<path d="M464.59,31.83c-21.43,0-36.99,16.13-36.99,38.34c0,22.58,16.86,37.74,41.53,37.74c15.73,0,25.74-3.96,27.55-4.73V86.16
				c-2.69,1.17-12.4,5.07-24.55,5.07c-10.92,0-20.14-4.78-23.4-12.88c-0.19-0.48-0.58-1.55-0.62-2.13h50.15
				c1.14-7.77,0.3-15.31-0.9-19.82C493.39,41.25,480.84,31.83,464.59,31.83z M448.06,61.42c0.93-7.41,7.86-13.05,16.25-13.05
				c8.27,0,14.85,4.6,15.64,12.5l0.05,0.55H448.06z"/>
			<path d="M553.78,63.64c-2.46-0.66-7.35-1.82-9.42-2.25c-7.02-1.46-11.65-2.42-11.65-6.96c0-3.66,3.67-6.06,9.85-6.06
				c13.26,0,23.42,4.13,26.15,5.35l0-16.39c-1.85-0.85-12.67-5.5-26.59-5.51c-18.38,0-30.48,9.39-30.48,23.94
				c0,7.2,3.88,16.64,19.62,20.7c2.89,0.74,6.9,1.56,9.28,2.02c6.39,1.23,11.01,2.13,11.01,6.69c0,4.11-3.42,6.2-10.16,6.2
				c-14.53,0-24.72-4.02-27.45-5.22l0,17.04c1.72,0.77,11.34,4.72,27.45,4.73c19.2,0,31.35-9.36,31.35-24.45
				C572.74,76.5,568.95,67.72,553.78,63.64z"/>
			<g>
				<polygon points="308.62,34.76 291.34,77.52 274.07,34.76 251.59,34.76 280.1,105.34 269.4,131.84 290.81,131.84 291.88,131.84 
					331.1,34.76 				"/>
			</g>
		</g>
	</g>
</g>
<g id="レイヤー_2">
</g>
</svg>
