<?xml version="1.0" encoding="UTF-8"?>
<svg id="_レイヤー_1" data-name="レイヤー 1" xmlns="http://www.w3.org/2000/svg" viewBox="0 0 226.77 56.69">
  <defs>
    <style>
      .cls-1 {
        fill: #1d2088;
      }

      .cls-1, .cls-2 {
        stroke-width: 0px;
      }

      .cls-2 {
        fill: #000;
      }
    </style>
  </defs>
  <path class="cls-1" d="M28.76,6.84c-11.88,0-21.51,9.63-21.51,21.51s9.63,21.51,21.51,21.51,21.51-9.62,21.51-21.51S40.64,6.84,28.76,6.84ZM22.19,47.52c-7.96-2.74-13.7-10.27-13.7-19.16,0-.44.04-.87.06-1.3,3.73,3.61,8.41,6.24,13.64,7.45v13.01ZM16.87,12.71c3.3-2.52,7.41-4.03,11.89-4.03s8.61,1.52,11.92,4.04c-2.17,4.39-6.68,7.42-11.92,7.42s-9.72-3.04-11.89-7.44ZM35.14,46.94v-12.62c5.07-1.18,9.61-3.71,13.23-7.2.02.41.06.82.06,1.24,0,8.62-5.56,15.93-13.28,18.58Z"/>
  <g>
    <path class="cls-2" d="M67.52,21.69l-1.2-5.07-2.25.51,1.2,5.08-7.56,1.73.94,5.43,7.89-1.81,4.29,18.16,2.25-.5-4.28-18.17,15.08-3.44c.39,2.96-1.8,5.38-8.6,6.69l1.76,6.14c8.12-3.95,10.53-9.43,8.56-18.87l-18.06,4.12Z"/>
    <path class="cls-2" d="M127.74,24.57v-8.24h-2.3v29.4h2.3v-18.45c5.8,5.01,12.06,8.84,21.56,8.84v-6.91c-12.89.76-17.67-1-21.56-4.63Z"/>
    <path class="cls-2" d="M91.81,22.83h24.79c-1.52,5.89-6.81,9.8-10.63,12.17-2.11-2.52-4.31-4.96-5.82-6.46l-3.79,3.58c3.07,3.07,9.05,10.02,11.19,13.6l3.79-3.58c-.9-1.51-2.49-3.61-4.24-5.78,7.46-5.42,12.23-8.45,13.24-18.58h-28.52v5.05Z"/>
    <path class="cls-2" d="M159.16,14.23c-.93,5.44-2.09,6.68-5.65,8.82v9.44c1.43-.43,2.59-1.65,3.56-3.37v16.61h2.09v-21.9c.84-2.95,1.47-6.31,1.97-9.59h-1.97Z"/>
    <path class="cls-2" d="M173.74,34.46h10.26v-5.26h-10.26v-4.16h10.26v-5.27h-9.08l1.19-1.32c-1.1-1.1-4.39-3.73-6.2-4.21l-2.8,3.12c1.09.29,2.72,1.37,4.09,2.42h-9.8v5.27h10.26v4.16h-10.26v5.26h10.26v5.27h-11.14v5.27h24.35v-5.27h-11.14v-5.27Z"/>
    <path class="cls-2" d="M216.41,16.31h-7.79v-2.08h-2.08v2.08h-8.73v2.85h8.73v1.48h-9.55v3.51h9.55v1.71h-8.73v2.85h8.73v1.65h-9.22v3.51h9.22v1.43h-10.04v3.46c-.64-.3-1.23-.64-1.77-1.03.98-3.01,1.44-6.01,1.44-7.21v-4.93h-5.6c1.46-1.12,4.95-3.88,5.6-5.43v-4.44h-8.06v4.44h4.12c-.65,1.56-2.1,3.55-4.12,5.43v4.93h6.09c0,2.01-.62,3.8-1.52,5.21-.92-1.22-1.53-2.68-1.77-4.38h-1.65c.19,2.22.87,4.32,1.87,6.19-1.01.87-2.14,1.38-3.18,1.38v6.81c2.41,0,4.23-2.16,5.55-4.9,2.48,2.66,5.78,4.33,9.26,4.33h15.47v-4.94h-9.6v-1.43h9.6v-3.51h-9.6v-1.43h8.77v-3.51h-8.77v-1.65h7.79v-4.55h2.31v-3.51h-2.31v-4.33ZM206.54,40.22h-2.47c-2.91,0-5.44-.49-7.48-1.43h9.96v1.43ZM214.33,25.85h-5.71v-1.71h5.71v1.71ZM214.33,20.64h-5.71v-1.48h5.71v1.48Z"/>
  </g>
</svg>